<svg width="24" height="24" viewBox="0 0 24 24" fill="none" xmlns="http://www.w3.org/2000/svg">
<path fill-rule="evenodd" clip-rule="evenodd" d="M12.0003 2.1001C17.4677 2.10033 21.9007 6.53301 21.9007 12.0005C21.9005 17.4678 17.4676 21.9007 12.0003 21.9009C6.53283 21.9009 2.10013 17.4679 2.09991 12.0005C2.09991 6.53287 6.5327 2.1001 12.0003 2.1001ZM9.30011 8.3999C8.80308 8.39994 8.39972 8.80326 8.39972 9.30029C8.39986 9.79721 8.80317 10.1997 9.30011 10.1997H12.5276L8.66339 14.064C8.31237 14.4154 8.31221 14.9851 8.66339 15.3364C9.01483 15.6878 9.58536 15.6878 9.93683 15.3364L13.8001 11.4731V14.6997C13.8002 15.1967 14.2035 15.6001 14.7005 15.6001C15.1973 15.5999 15.5998 15.1966 15.5999 14.6997V9.30029C15.5999 8.80338 15.1974 8.40013 14.7005 8.3999H9.30011Z" fill="#171719"/>
</svg>
