<svg width="24" height="24" viewBox="0 0 24 24" fill="none" xmlns="http://www.w3.org/2000/svg">
<path fill-rule="evenodd" clip-rule="evenodd" d="M2.78339 9.6894C2.50657 9.9662 2.26151 10.2112 2.07506 10.4309C1.87651 10.6648 1.69206 10.9284 1.58509 11.2576C1.42847 11.7397 1.42847 12.2589 1.58509 12.7409C1.69206 13.0702 1.87651 13.3338 2.07506 13.5677C2.2615 13.7873 2.50649 14.0323 2.7833 14.3091L3.50228 15.0281C3.77907 15.3049 4.02412 15.55 4.24374 15.7364C4.47763 15.9349 4.74128 16.1194 5.07052 16.2264C5.55255 16.383 6.07178 16.383 6.55381 16.2264C6.88305 16.1194 7.1467 15.9349 7.38059 15.7364C7.60022 15.5499 7.8452 15.3049 8.122 15.0281L8.84094 14.3092C9.11777 14.0324 9.36282 13.7873 9.54927 13.5677C9.74782 13.3338 9.93227 13.0702 10.0392 12.7409C10.1959 12.2589 10.1959 11.7397 10.0392 11.2576C9.93227 10.9284 9.74782 10.6648 9.54927 10.4309C9.36282 10.2112 9.11781 9.96625 8.84098 9.68945L8.12205 8.97051C7.84524 8.69368 7.60022 8.44864 7.38059 8.26219C7.1467 8.06363 6.88305 7.87919 6.55381 7.77221C6.07178 7.61559 5.55255 7.61559 5.07052 7.77221C4.74128 7.87919 4.47763 8.06363 4.24374 8.26219C4.02412 8.44863 3.77914 8.69363 3.50234 8.97045L2.78339 9.6894ZM3.33288 11.7268C3.35971 11.6741 3.42311 11.595 3.86748 11.1506L4.9635 10.0546C5.40787 9.61024 5.48697 9.54683 5.53963 9.52C5.71076 9.43281 5.91329 9.43281 6.08442 9.52C6.13707 9.54683 6.21618 9.61023 6.66055 10.0546L7.75657 11.1506C8.20094 11.595 8.26434 11.6741 8.29117 11.7268C8.37837 11.8979 8.37837 12.1004 8.29117 12.2715C8.26434 12.3242 8.20094 12.4033 7.75657 12.8477L6.66055 13.9437C6.21618 14.3881 6.13707 14.4515 6.08442 14.4783C5.91329 14.5655 5.71076 14.5655 5.53963 14.4783C5.48697 14.4515 5.40787 14.3881 4.9635 13.9437L3.86748 12.8477C3.42311 12.4033 3.35971 12.3242 3.33288 12.2715C3.24568 12.1004 3.24568 11.8979 3.33288 11.7268Z" fill="#171719"/>
<path fill-rule="evenodd" clip-rule="evenodd" d="M8.97125 15.8773C8.69442 16.1541 8.44938 16.3991 8.26293 16.6187C8.06437 16.8526 7.87993 17.1163 7.77295 17.4455C7.61633 17.9276 7.61633 18.4468 7.77295 18.9288C7.87993 19.2581 8.06437 19.5217 8.26293 19.7556C8.44937 19.9752 8.69437 20.2202 8.97119 20.497L9.69014 21.216C9.96694 21.4928 10.212 21.7378 10.4316 21.9243C10.6655 22.1228 10.9291 22.3073 11.2584 22.4143C11.7404 22.5709 12.2596 22.5709 12.7417 22.4143C13.0709 22.3073 13.3346 22.1228 13.5685 21.9243C13.7881 21.7378 14.0331 21.4928 14.3099 21.216L15.0288 20.4971C15.3057 20.2202 15.5507 19.9752 15.7371 19.7556C15.9357 19.5217 16.1201 19.2581 16.2271 18.9288C16.3837 18.4468 16.3837 17.9276 16.2271 17.4455C16.1201 17.1163 15.9357 16.8526 15.7371 16.6187C15.5507 16.3991 15.3057 16.1541 15.0288 15.8773L14.3099 15.1584C14.0331 14.8816 13.7881 14.6365 13.5685 14.4501C13.3346 14.2515 13.0709 14.0671 12.7417 13.9601C12.2596 13.8035 11.7404 13.8035 11.2584 13.9601C10.9291 14.0671 10.6655 14.2515 10.4316 14.4501C10.212 14.6365 9.96699 14.8815 9.69018 15.1584L8.97125 15.8773ZM9.52074 17.9146C9.54757 17.862 9.61097 17.7829 10.0553 17.3385L11.1514 16.2425C11.5957 15.7981 11.6748 15.7347 11.7275 15.7079C11.8986 15.6207 12.1012 15.6207 12.2723 15.7079C12.3249 15.7347 12.404 15.7981 12.8484 16.2425L13.9444 17.3385C14.3888 17.7829 14.4522 17.862 14.479 17.9146C14.5662 18.0858 14.5662 18.2883 14.479 18.4594C14.4522 18.5121 14.3888 18.5912 13.9444 19.0356L12.8484 20.1316C12.404 20.5759 12.3249 20.6394 12.2723 20.6662C12.1012 20.7534 11.8986 20.7534 11.7275 20.6662C11.6748 20.6394 11.5957 20.5759 11.1514 20.1316L10.0553 19.0356C9.61097 18.5912 9.54757 18.5121 9.52074 18.4594C9.43354 18.2883 9.43355 18.0858 9.52074 17.9146Z" fill="#171719"/>
<path fill-rule="evenodd" clip-rule="evenodd" d="M8.97125 3.50292L9.69015 2.78403C9.96697 2.50718 10.212 2.26216 10.4316 2.0757C10.6655 1.87715 10.9291 1.6927 11.2584 1.58573C11.7404 1.42911 12.2596 1.42911 12.7417 1.58573C13.0709 1.6927 13.3346 1.87715 13.5685 2.0757C13.7881 2.26216 14.0331 2.50718 14.3099 2.78403L15.0288 3.50292C15.3057 3.77975 15.5507 4.02474 15.7371 4.24438C15.9357 4.47827 16.1201 4.74192 16.2271 5.07116C16.3837 5.55319 16.3837 6.07242 16.2271 6.55445C16.1201 6.88369 15.9357 7.14734 15.7371 7.38123C15.5507 7.60086 15.3057 7.84584 15.0288 8.12265L14.3099 8.84158C14.0331 9.11842 13.7881 9.36346 13.5685 9.54991C13.3346 9.74846 13.0709 9.93291 12.7417 10.0399C12.2596 10.1965 11.7404 10.1965 11.2584 10.0399C10.9291 9.93291 10.6655 9.74846 10.4316 9.54991C10.212 9.36345 9.96698 9.11844 9.69017 8.8416L8.97125 8.12269C8.69441 7.84587 8.44938 7.60086 8.26293 7.38123C8.06437 7.14734 7.87993 6.88369 7.77295 6.55445C7.61633 6.07242 7.61633 5.55319 7.77295 5.07116C7.87993 4.74192 8.06437 4.47827 8.26293 4.24438C8.44939 4.02474 8.6944 3.77975 8.97125 3.50292ZM10.0553 4.96414C9.61097 5.40851 9.54757 5.48761 9.52074 5.54027C9.43354 5.7114 9.43355 5.91393 9.52074 6.08506C9.54757 6.13772 9.61097 6.21682 10.0553 6.66119L11.1514 7.75721C11.5957 8.20158 11.6748 8.26498 11.7275 8.29181C11.8986 8.37901 12.1012 8.37901 12.2723 8.29181C12.3249 8.26498 12.404 8.20158 12.8484 7.75721L13.9444 6.66119C14.3888 6.21682 14.4522 6.13772 14.479 6.08506C14.5662 5.91393 14.5662 5.7114 14.479 5.54027C14.4522 5.48761 14.3888 5.40851 13.9444 4.96414L12.8484 3.86812C12.404 3.42375 12.3249 3.36035 12.2723 3.33352C12.1012 3.24632 11.8986 3.24632 11.7275 3.33352C11.6748 3.36035 11.5957 3.42375 11.1514 3.86812L10.0553 4.96414Z" fill="#171719"/>
<path fill-rule="evenodd" clip-rule="evenodd" d="M15.1588 9.69045C14.8819 9.96727 14.6369 10.2123 14.4505 10.4319C14.2519 10.6658 14.0675 10.9295 13.9605 11.2587C13.8039 11.7407 13.8039 12.26 13.9605 12.742C14.0675 13.0712 14.2519 13.3349 14.4505 13.5688C14.6369 13.7884 14.8819 14.0334 15.1588 14.3102L15.8777 15.0291C16.1545 15.306 16.3995 15.551 16.6191 15.7374C16.853 15.936 17.1167 16.1204 17.4459 16.2274C17.9279 16.384 18.4472 16.384 18.9292 16.2274C19.2584 16.1204 19.5221 15.936 19.756 15.7374C19.9756 15.551 20.2206 15.306 20.4974 15.0291L21.2163 14.3102C21.4932 14.0334 21.7382 13.7884 21.9247 13.5688C22.1232 13.3349 22.3077 13.0712 22.4146 12.742C22.5713 12.26 22.5713 11.7407 22.4146 11.2587C22.3077 10.9295 22.1232 10.6658 21.9247 10.4319C21.7382 10.2123 21.4932 9.96728 21.2163 9.69045L20.4974 8.97156C20.2206 8.69471 19.9756 8.44969 19.756 8.26323C19.5221 8.06468 19.2584 7.88023 18.9292 7.77325C18.4472 7.61664 17.9279 7.61664 17.4459 7.77326C17.1167 7.88023 16.853 8.06468 16.6191 8.26323C16.3995 8.44969 16.1545 8.6947 15.8777 8.97154L15.1588 9.69045ZM15.7083 11.7278C15.7351 11.6751 15.7985 11.596 16.2429 11.1517L17.3389 10.0557C17.7833 9.61128 17.8624 9.54788 17.915 9.52105C18.0862 9.43385 18.2887 9.43385 18.4598 9.52105C18.5125 9.54788 18.5916 9.61128 19.0359 10.0557L20.132 11.1517C20.5763 11.596 20.6397 11.6751 20.6666 11.7278C20.7538 11.8989 20.7538 12.1015 20.6666 12.2726C20.6397 12.3252 20.5763 12.4044 20.132 12.8487L19.0359 13.9447C18.5916 14.3891 18.5125 14.4525 18.4598 14.4793C18.2887 14.5665 18.0862 14.5665 17.915 14.4793C17.8624 14.4525 17.7833 14.3891 17.3389 13.9447L16.2429 12.8487C15.7985 12.4044 15.7351 12.3252 15.7083 12.2726C15.6211 12.1015 15.6211 11.8989 15.7083 11.7278Z" fill="#171719"/>
</svg>
