<svg width="24" height="24" viewBox="0 0 24 24" fill="none" xmlns="http://www.w3.org/2000/svg">
<path d="M5.11688 3.1001H18.8835C19.275 3.10008 19.6215 3.10007 19.9087 3.12353C20.2144 3.14851 20.5313 3.20452 20.8397 3.36169C21.2913 3.59178 21.6585 3.95894 21.8886 4.41052C22.0457 4.71898 22.1018 5.03583 22.1267 5.34162C22.1502 5.62877 22.1502 5.97525 22.1502 6.36675V14.1334C22.1502 14.5249 22.1502 14.8714 22.1267 15.1586C22.1018 15.4644 22.0457 15.7812 21.8886 16.0897C21.6585 16.5413 21.2913 16.9084 20.8397 17.1385C20.5313 17.2957 20.2144 17.3517 19.9087 17.3767C19.6215 17.4001 19.2751 17.4001 18.8836 17.4001L12.9002 17.4001V19.5998H16.9998C17.4969 19.5998 17.8998 20.0028 17.8998 20.4998C17.8998 20.9969 17.4969 21.3998 16.9998 21.3998H6.99986C6.5028 21.3998 6.09986 20.9969 6.09986 20.4998C6.09986 20.0028 6.5028 19.5998 6.99986 19.5998H11.1002V17.4001L5.11688 17.4001C4.72541 17.4001 4.37886 17.4001 4.09173 17.3767C3.78595 17.3517 3.4691 17.2957 3.16064 17.1385C2.70905 16.9084 2.3419 16.5413 2.11181 16.0897C1.95464 15.7812 1.89863 15.4644 1.87365 15.1586C1.85019 14.8715 1.8502 14.525 1.85022 14.1335V6.36677C1.8502 5.9753 1.85019 5.62875 1.87365 5.34162C1.89863 5.03583 1.95464 4.71898 2.11181 4.41052C2.3419 3.95894 2.70905 3.59178 3.16064 3.36169C3.4691 3.20452 3.78595 3.14851 4.09173 3.12353C4.37886 3.10007 4.72541 3.10008 5.11688 3.1001Z" fill="#171719"/>
</svg>
