<svg width="24" height="24" viewBox="0 0 24 24" fill="none" xmlns="http://www.w3.org/2000/svg">
<path d="M7.52344 15.8999C7.99415 18.0276 8.84129 19.9948 9.9834 21.6948C6.78772 21.0333 4.15609 18.8313 2.89844 15.8999H7.52344Z" fill="#171719"/>
<path d="M21.1016 15.8999C19.8434 18.8321 17.2107 21.034 14.0137 21.6948C15.1561 19.9946 16.0045 18.0279 16.4756 15.8999H21.1016Z" fill="#171719"/>
<path d="M14.6309 15.8999C14.1172 17.9851 13.2036 19.8612 11.999 21.4185C10.7947 19.8613 9.88137 17.9852 9.36816 15.8999H14.6309Z" fill="#171719"/>
<path d="M21.6748 9.8999C21.8212 10.5771 21.9004 11.2795 21.9004 12.0005C21.9004 12.7207 21.8219 13.4226 21.6758 14.0991H16.7783C16.8582 13.4112 16.9004 12.7107 16.9004 12.0005C16.9004 11.2898 16.8583 10.5883 16.7783 9.8999H21.6748Z" fill="#171719"/>
<path d="M7.22168 9.8999C7.14178 10.5883 7.09961 11.2898 7.09961 12.0005C7.09963 12.7107 7.14184 13.4112 7.22168 14.0991H2.3252C2.1791 13.4226 2.09964 12.7207 2.09961 12.0005C2.09961 11.2796 2.17886 10.577 2.3252 9.8999H7.22168Z" fill="#171719"/>
<path d="M14.9648 9.8999C15.0521 10.5837 15.0996 11.2851 15.0996 12.0005C15.0996 12.7153 15.053 13.4159 14.9658 14.0991H9.03516C8.94803 13.4158 8.90041 12.7154 8.90039 12.0005C8.90039 11.2851 8.94796 10.5837 9.03516 9.8999H14.9648Z" fill="#171719"/>
<path d="M14.0146 2.30518C17.2108 2.96598 19.8432 5.16792 21.1016 8.09912H16.4756C16.0046 5.9714 15.1569 4.00505 14.0146 2.30518Z" fill="#171719"/>
<path d="M9.98242 2.30615C8.841 4.00565 7.99499 5.97208 7.52441 8.09912H2.89941C4.15723 5.16898 6.7878 2.96777 9.98242 2.30615Z" fill="#171719"/>
<path d="M11.999 2.58154C13.2035 4.13864 14.1172 6.01399 14.6309 8.09912H9.36816C9.8813 6.01396 10.7947 4.13858 11.999 2.58154Z" fill="#171719"/>
</svg>
