<svg width="24" height="24" viewBox="0 0 24 24" fill="none" xmlns="http://www.w3.org/2000/svg">
<path d="M12.2269 2.09961C14.8133 2.09966 17.0837 2.92785 18.9877 4.58398C20.9174 6.26262 21.9046 8.40271 21.9047 10.9385C21.9046 12.6322 21.4054 14.0712 20.2308 15.0332C19.1647 15.9061 17.8869 16.3311 16.4535 16.3311H14.5072C13.9435 16.3311 13.5237 16.4912 13.1859 16.7822C12.892 17.0355 12.728 17.368 12.7279 17.8867C12.7279 18.4852 13.1245 19.0256 13.2035 19.126C13.5294 19.8134 13.5618 19.7913 13.5619 20.3887C13.5618 20.7944 13.409 21.1924 13.0814 21.4902C12.7581 21.784 12.3649 21.8896 12.0043 21.8896C10.8166 21.977 7.75323 21.5207 4.99841 18.9971C3.07629 17.0758 2.10495 14.7229 2.10486 11.9951C2.10486 8.52627 4.33713 5.63385 5.45349 4.62109C7.35077 2.94387 9.6243 2.09967 12.2269 2.09961ZM6.50037 9C5.67209 9 5.00062 9.67179 5.00037 10.5C5.00037 11.3284 5.67194 12 6.50037 12C7.32863 11.9998 8.00037 11.3283 8.00037 10.5C8.00011 9.67191 7.32847 9.0002 6.50037 9ZM18.2504 8.25098C17.4219 8.25098 16.7504 8.92255 16.7504 9.75098C16.7504 10.5793 17.422 11.251 18.2504 11.251C19.0786 11.2508 19.7503 10.5792 19.7504 9.75098C19.7504 8.92265 19.0787 8.25114 18.2504 8.25098ZM9.474 5.00098C8.64557 5.00098 7.974 5.67255 7.974 6.50098C7.97425 7.32919 8.64572 8.00098 9.474 8.00098C10.3023 8.00096 10.9737 7.32919 10.974 6.50098C10.974 5.67255 10.3024 5.00099 9.474 5.00098ZM14.6879 5.00098C13.8596 5.00121 13.1879 5.67269 13.1879 6.50098C13.1881 7.32905 13.8598 8.00075 14.6879 8.00098C15.5161 8.00098 16.1876 7.32919 16.1879 6.50098C16.1879 5.67255 15.5163 5.00098 14.6879 5.00098Z" fill="#171719"/>
</svg>
