<svg width="24" height="24" viewBox="0 0 24 24" fill="none" xmlns="http://www.w3.org/2000/svg">
<path d="M11.2504 7.92578C11.2504 8.54703 11.7541 9.05066 12.3754 9.05078H12.8929C13.2282 9.05133 13.5003 9.32377 13.5004 9.65918C13.5006 9.98802 13.7625 10.2572 14.0912 10.2666L14.7845 10.2852L14.7426 10.5635C14.4814 11.8392 13.3523 12.7987 11.9994 12.7988C11.5426 12.7988 11.1139 12.6852 10.7338 12.4902V12.166C10.7338 11.9986 10.8701 11.8624 11.0375 11.8623H11.3187C11.8327 11.862 12.2501 11.4456 12.2504 10.9316C12.2503 10.4175 11.8328 10.0003 11.3187 10H9.19959C9.19959 8.71332 10.068 7.63206 11.2504 7.30469V7.92578Z" fill="#171719"/>
<path fill-rule="evenodd" clip-rule="evenodd" d="M16.5004 2.09961C17.185 2.09961 17.7534 2.09906 18.2152 2.13672C18.6876 2.17532 19.129 2.25919 19.5443 2.4707C20.1837 2.79662 20.7038 3.31665 21.0297 3.95606C21.2413 4.37141 21.325 4.81269 21.3636 5.28516C21.4013 5.74704 21.4008 6.31519 21.4008 7V17C21.4008 17.6848 21.4013 18.253 21.3636 18.7148C21.325 19.1872 21.2412 19.6287 21.0297 20.0439C20.7037 20.6831 20.1835 21.2035 19.5443 21.5293C19.1291 21.7407 18.6875 21.8247 18.2152 21.8633C17.7534 21.9009 17.185 21.9004 16.5004 21.9004H7.50037C6.81572 21.9004 6.24731 21.901 5.78552 21.8633C5.31324 21.8247 4.87163 21.7408 4.45642 21.5293C3.81715 21.2034 3.29694 20.6832 2.97107 20.0439C2.75948 19.6287 2.6757 19.1872 2.63709 18.7148C2.59938 18.253 2.59998 17.6848 2.59998 17V7C2.59998 6.31523 2.59941 5.74702 2.63709 5.28516C2.67568 4.81284 2.75961 4.3713 2.97107 3.95606C3.29689 3.31683 3.81726 2.79663 4.45642 2.4707C4.87161 2.25918 5.31327 2.17535 5.78552 2.13672C6.24731 2.09903 6.81573 2.09961 7.50037 2.09961H16.5004ZM9.49939 16.8496C9.0025 16.8498 8.599 17.2531 8.599 17.75C8.5992 18.2468 9.00262 18.6502 9.49939 18.6504H14.4994C14.9963 18.6504 15.3996 18.2469 15.3998 17.75C15.3998 17.2529 14.9964 16.8496 14.4994 16.8496H9.49939ZM11.9994 5.79883C9.67988 5.79892 7.7992 7.67949 7.79919 9.99902C7.79926 12.3185 9.67992 14.1991 11.9994 14.1992C14.3189 14.1991 16.1995 12.3185 16.1996 9.99902C16.1996 7.67949 14.3189 5.79893 11.9994 5.79883Z" fill="#171719"/>
</svg>
