<svg width="24" height="24" viewBox="0 0 24 24" fill="none" xmlns="http://www.w3.org/2000/svg">
<path d="M12.8613 1.40824C12.3199 1.1328 11.6794 1.1328 11.1381 1.40824C10.7036 1.62929 10.4542 2.03942 10.2878 2.35692C10.1122 2.69214 9.92554 3.14091 9.7075 3.66518L8.5022 6.56307C8.4299 6.73692 8.39078 6.82994 8.35803 6.89672C8.34816 6.91684 8.34136 6.92928 8.33743 6.93609C8.33141 6.94172 8.32471 6.94659 8.3175 6.95057C8.30981 6.9522 8.29588 6.95483 8.27369 6.958C8.20006 6.96851 8.09951 6.97697 7.91182 6.99201L4.78335 7.24282C4.21735 7.28818 3.73286 7.327 3.35976 7.39046C3.0064 7.45055 2.53926 7.56107 2.19477 7.90595C1.76551 8.33571 1.56761 8.94481 1.66228 9.5448C1.73825 10.0263 2.05122 10.3903 2.30177 10.6466C2.56632 10.9173 2.93545 11.2334 3.36669 11.6028L5.75027 13.6446C5.89327 13.7671 5.96964 13.833 6.02303 13.8848C6.03912 13.9004 6.04885 13.9107 6.05411 13.9166C6.05761 13.924 6.06016 13.9319 6.06173 13.94C6.0609 13.9478 6.05909 13.9619 6.05525 13.984C6.04249 14.0573 6.01946 14.1555 5.97578 14.3386L5.24756 17.3915C5.11579 17.9438 5.003 18.4166 4.94805 18.791C4.89601 19.1457 4.85676 19.6241 5.07832 20.0583C5.35439 20.5994 5.87252 20.9758 6.4724 21.0712C6.95381 21.1477 7.3967 20.9625 7.7179 20.8035C8.05704 20.6355 8.47182 20.3821 8.95639 20.0861L11.6348 18.4502C11.7955 18.352 11.8818 18.2998 11.9475 18.265C11.9674 18.2545 11.9802 18.2484 11.9873 18.2452C11.9955 18.2442 12.0038 18.2442 12.012 18.2452C12.0192 18.2484 12.032 18.2545 12.0518 18.265C12.1175 18.2998 12.2039 18.352 12.3645 18.4502L15.043 20.0862C15.5275 20.3821 15.9423 20.6355 16.2814 20.8035C16.6026 20.9625 17.0455 21.1477 17.5269 21.0712C18.1268 20.9758 18.6449 20.5994 18.921 20.0583C19.1426 19.6241 19.1033 19.1457 19.0513 18.791C18.9963 18.4166 18.8836 17.9438 18.7518 17.3915L18.0236 14.3386C17.9799 14.1555 17.9568 14.0573 17.9441 13.984C17.9402 13.9619 17.9384 13.9478 17.9376 13.94C17.9392 13.9319 17.9417 13.924 17.9452 13.9166C17.9505 13.9107 17.9602 13.9004 17.9763 13.8848C18.0297 13.833 18.1061 13.7671 18.2491 13.6446L20.6326 11.6028C21.0639 11.2334 21.433 10.9173 21.6976 10.6466C21.9481 10.3903 22.2611 10.0263 22.3371 9.5448C22.4317 8.94481 22.2338 8.33571 21.8046 7.90595C21.4601 7.56107 20.9929 7.45055 20.6396 7.39046C20.2665 7.327 19.782 7.28818 19.216 7.24282L16.0875 6.99201C15.8998 6.97697 15.7993 6.96851 15.7256 6.958C15.7035 6.95483 15.6895 6.9522 15.6818 6.95057C15.6746 6.94659 15.6679 6.94172 15.6619 6.93609C15.658 6.92928 15.6512 6.91684 15.6413 6.89672C15.6086 6.82994 15.5694 6.73693 15.4971 6.56307L14.2918 3.66522C14.0738 3.14094 13.8872 2.69215 13.7115 2.35692C13.5452 2.03942 13.2957 1.62929 12.8613 1.40824Z" fill="#171719"/>
</svg>
