<svg width="24" height="24" viewBox="0 0 24 24" fill="none" xmlns="http://www.w3.org/2000/svg">
<path fill-rule="evenodd" clip-rule="evenodd" d="M14.6423 1.84719H16.3576C16.9989 1.84694 17.4672 1.84675 17.918 1.95499C18.316 2.05054 18.6964 2.20814 19.0454 2.422C19.4407 2.66426 19.7716 2.99553 20.2248 3.44916L20.5484 3.77272C21.0019 4.22592 21.3331 4.5569 21.5753 4.95215C21.7891 5.30107 21.9466 5.68147 22.0421 6.07939C22.1504 6.53014 22.1502 6.99835 22.1499 7.6395V9.3548C22.1502 9.99599 22.1504 10.4642 22.0421 10.915C21.9466 11.313 21.789 11.6934 21.5752 12.0423C21.333 12.4376 21.0017 12.7686 20.5482 13.2218L14.7537 19.0162C14.1824 19.5876 13.7151 20.0548 13.3043 20.4036C12.8791 20.7646 12.4555 21.0511 11.9551 21.2137C11.1718 21.4682 10.328 21.4682 9.54472 21.2137C9.04423 21.0511 8.6207 20.7646 8.1955 20.4036C7.78469 20.0548 7.31741 19.5875 6.74603 19.0161L4.98093 17.2511C4.40956 16.6797 3.94225 16.2124 3.59352 15.8016C3.23254 15.3764 2.94603 14.9529 2.78341 14.4524C2.5289 13.6691 2.5289 12.8253 2.78341 12.0421C2.94603 11.5416 3.23254 11.118 3.59352 10.6928C3.94225 10.282 4.40954 9.81476 4.98091 9.24341L10.7753 3.44895C11.2285 2.99537 11.5595 2.66415 11.9548 2.42192C12.3037 2.20809 12.6842 2.05051 13.0821 1.95497C13.5329 1.84675 14.0011 1.84694 14.6423 1.84719ZM16.2498 9.25049C17.0782 9.25049 17.7498 8.57892 17.7498 7.75049C17.7498 6.92206 17.0782 6.25049 16.2498 6.25049C15.4214 6.25049 14.7498 6.92206 14.7498 7.75049C14.7498 8.57892 15.4214 9.25049 16.2498 9.25049Z" fill="#171719"/>
</svg>
