<svg width="24" height="24" viewBox="0 0 24 24" fill="none" xmlns="http://www.w3.org/2000/svg">
<path fill-rule="evenodd" clip-rule="evenodd" d="M3.94786 9.58598L9.58733 3.94652C10.1587 3.37514 10.626 2.90783 11.0368 2.55909C11.462 2.19812 11.8855 1.9116 12.386 1.74898C13.1693 1.49448 14.0131 1.49448 14.7963 1.74899C15.6213 2.01704 16.2901 2.65119 17.1333 3.48628C17.4137 3.76399 17.4805 4.19197 17.298 4.5419C16.9831 5.14575 17.0808 5.90731 17.5862 6.41278C18.0917 6.91826 18.8533 7.01592 19.4571 6.70101C19.8071 6.51853 20.235 6.5853 20.5127 6.8657C21.3478 7.7089 21.982 8.3777 22.25 9.20269C22.5045 9.98597 22.5046 10.8297 22.25 11.613C22.0874 12.1135 21.8009 12.537 21.4399 12.9622C21.0912 13.373 20.6239 13.8403 20.0525 14.4117L14.413 20.0512C13.8417 20.6226 13.3744 21.0898 12.9636 21.4386C12.5384 21.7996 12.1149 22.0861 11.6144 22.2487C10.8311 22.5032 9.98732 22.5032 9.20403 22.2487C8.37902 21.9806 7.71022 21.3465 6.86699 20.5113C6.58662 20.2337 6.51983 19.8057 6.70226 19.4558C7.01707 18.852 6.91939 18.0905 6.41396 17.5851C5.90852 17.0796 5.14704 16.982 4.54321 17.2968C4.1933 17.4792 3.76536 17.4124 3.48768 17.132C2.65256 16.2888 2.01839 15.62 1.75033 14.795C1.49582 14.0117 1.49582 13.168 1.75033 12.3847C1.91295 11.8842 2.19946 11.4606 2.56044 11.0354C2.90917 10.6246 3.37649 10.1573 3.94786 9.58598ZM11.0115 6.76772C11.363 6.41625 11.9329 6.41625 12.2843 6.76772L13.345 7.82838C13.6965 8.17985 13.6965 8.7497 13.345 9.10117C12.9935 9.45264 12.4237 9.45264 12.0722 9.10117L11.0115 8.04051C10.6601 7.68904 10.6601 7.11919 11.0115 6.76772ZM14.8995 10.6557C15.251 10.3042 15.8208 10.3042 16.1723 10.6557L17.233 11.7164C17.5844 12.0678 17.5844 12.6377 17.233 12.9892C16.8815 13.3406 16.3116 13.3406 15.9602 12.9892L14.8995 11.9285C14.548 11.577 14.548 11.0072 14.8995 10.6557Z" fill="#171719"/>
</svg>
