<svg width="24" height="24" viewBox="0 0 24 24" fill="none" xmlns="http://www.w3.org/2000/svg">
<path d="M16.4958 2.31287C17.1909 2.42208 17.3587 3.25924 16.8611 3.75677L14.7032 5.91469C14.2885 6.32983 14.289 7.00297 14.7039 7.41798L16.0698 8.78386C16.4848 9.19853 17.158 9.1992 17.5731 8.78455L19.7269 6.63077C20.2251 6.13273 21.0621 6.30255 21.1694 6.99883C21.4458 8.79334 20.8732 10.7171 19.4617 12.1288C17.6612 13.9293 15.0271 14.3652 12.8913 13.4153L6.41612 19.8904C5.63513 20.6714 4.36875 20.6713 3.5877 19.8904C2.80666 19.1094 2.80667 17.843 3.5877 17.062L10.0642 10.5855C9.1155 8.44985 9.55015 5.81694 11.35 4.0171C12.7658 2.60152 14.6969 2.03027 16.4958 2.31287Z" fill="#171719"/>
</svg>
