<svg width="24" height="24" viewBox="0 0 24 24" fill="none" xmlns="http://www.w3.org/2000/svg">
<path d="M8.16444 2.59961C7.63458 2.5996 7.18338 2.59958 6.81296 2.62985C6.4238 2.66164 6.04521 2.73128 5.68328 2.91569C5.13761 3.19373 4.69397 3.63737 4.41594 4.18304C4.23152 4.54497 4.16189 4.92357 4.13009 5.31273C4.09983 5.68315 4.09984 6.13432 4.09985 6.66418V21.4996C4.09985 21.8247 4.27517 22.1245 4.55848 22.2839C4.84178 22.4434 5.18905 22.4376 5.46693 22.2689L11.9998 18.3025L18.5327 22.2689C18.8106 22.4376 19.1579 22.4434 19.4412 22.2839C19.7245 22.1245 19.8998 21.8247 19.8998 21.4996V6.66421C19.8998 6.13434 19.8998 5.68316 19.8696 5.31273C19.8378 4.92357 19.7681 4.54497 19.5837 4.18304C19.3057 3.63737 18.862 3.19373 18.3164 2.91569C17.9544 2.73128 17.5758 2.66164 17.1867 2.62985C16.8163 2.59958 16.3651 2.5996 15.8352 2.59961H8.16444Z" fill="#171719"/>
</svg>
