<svg width="24" height="24" viewBox="0 0 24 24" fill="none" xmlns="http://www.w3.org/2000/svg">
<path fill-rule="evenodd" clip-rule="evenodd" d="M2.09991 12.0001C2.09991 6.53248 6.53227 2.1001 11.9999 2.1001C17.4675 2.1001 21.8998 6.53248 21.8998 12.0001C21.8998 17.4677 17.4675 21.9001 11.9999 21.9001C6.53227 21.9001 2.09991 17.4677 2.09991 12.0001ZM12.8999 7.75C12.8999 7.25294 12.497 6.85 11.9999 6.85C11.5028 6.85 11.0999 7.25294 11.0999 7.75V11.1H7.74992C7.25286 11.1 6.84992 11.5029 6.84992 12C6.84992 12.4971 7.25286 12.9 7.74992 12.9H11.0999V16.25C11.0999 16.7471 11.5028 17.15 11.9999 17.15C12.497 17.15 12.8999 16.7471 12.8999 16.25V12.9H16.2499C16.7469 12.9 17.1499 12.4971 17.1499 12C17.1499 11.5029 16.7469 11.1 16.2499 11.1H12.8999V7.75Z" fill="#171719"/>
</svg>
