<svg width="24" height="24" viewBox="0 0 24 24" fill="none" xmlns="http://www.w3.org/2000/svg">
<path fill-rule="evenodd" clip-rule="evenodd" d="M2.09991 12.0001C2.09991 6.53248 6.53228 2.1001 11.9999 2.1001C17.4675 2.1001 21.8998 6.53248 21.8998 12.0001C21.8998 17.4677 17.4675 21.9001 11.9999 21.9001C6.53228 21.9001 2.09991 17.4677 2.09991 12.0001ZM16.6466 9.87594C16.9923 9.51878 16.983 8.94901 16.6258 8.60331C16.2687 8.25762 15.6989 8.26691 15.3532 8.62406L10.6773 13.455L8.64745 11.3522C8.30224 10.9946 7.73248 10.9845 7.37486 11.3297C7.01724 11.6749 7.00717 12.2447 7.35238 12.6023L10.0288 15.3751C10.1983 15.5506 10.4318 15.6498 10.6758 15.65C10.9198 15.6502 11.1534 15.5513 11.3231 15.3759L16.6466 9.87594Z" fill="#171719"/>
</svg>
