<svg width="24" height="24" viewBox="0 0 24 24" fill="none" xmlns="http://www.w3.org/2000/svg">
<path d="M1.85219 12.9538C1.32499 12.4266 1.32498 11.5719 1.85219 11.0447L4.8574 8.03945C5.3846 7.51224 6.23938 7.51224 6.76659 8.03945L9.77179 11.0447C10.299 11.5719 10.299 12.4266 9.77179 12.9538L6.76659 15.959C6.23938 16.4863 5.3846 16.4863 4.8574 15.959L1.85219 12.9538Z" fill="#171719"/>
<path d="M8.04 19.1418C7.51279 18.6146 7.51279 17.7598 8.04 17.2326L11.0452 14.2274C11.5724 13.7002 12.4272 13.7002 12.9544 14.2274L15.9596 17.2326C16.4868 17.7598 16.4868 18.6146 15.9596 19.1418L12.9544 22.147C12.4272 22.6742 11.5724 22.6742 11.0452 22.147L8.04 19.1418Z" fill="#171719"/>
<path d="M8.04 4.85813C7.51279 5.38534 7.51279 6.24011 8.04 6.76732L11.0452 9.77252C11.5724 10.2997 12.4272 10.2997 12.9544 9.77252L15.9596 6.76732C16.4868 6.24011 16.4868 5.38534 15.9596 4.85813L12.9544 1.85293C12.4272 1.32572 11.5724 1.32572 11.0452 1.85292L8.04 4.85813Z" fill="#171719"/>
<path d="M14.2275 12.9548C13.7003 12.4276 13.7003 11.5728 14.2275 11.0456L17.2327 8.04042C17.7599 7.51322 18.6147 7.51322 19.1419 8.04042L22.1471 11.0456C22.6743 11.5728 22.6743 12.4276 22.1471 12.9548L19.1419 15.96C18.6147 16.4872 17.7599 16.4872 17.2327 15.96L14.2275 12.9548Z" fill="#171719"/>
</svg>
