<svg width="24" height="24" viewBox="0 0 24 24" fill="none" xmlns="http://www.w3.org/2000/svg">
<path d="M5.82863 3.99995C5.80849 4.02415 5.78872 4.04808 5.76927 4.07162L5.70921 4.14411L2.39396 8.1224C2.15387 8.41041 1.92286 8.68753 1.75994 8.94234C1.72751 8.99307 1.69581 9.0458 1.66565 9.10065H10.0792L5.82863 3.99995Z" fill="#171719"/>
<path d="M1.69653 10.9006C1.73149 10.9591 1.76823 11.0149 1.80574 11.0683C1.97948 11.3159 2.2222 11.5828 2.47447 11.8602L9.89076 20.0181C10.2051 20.364 10.5008 20.6893 10.7776 20.9201C10.8757 21.0018 10.9829 21.0817 11.1003 21.1526V10.9006H1.69653Z" fill="#171719"/>
<path d="M12.9003 21.1527C13.0176 21.0818 13.1248 21.0019 13.223 20.9201C13.4998 20.6893 13.7954 20.364 14.1098 20.0182L21.5261 11.8602C21.7784 11.5828 22.0211 11.3159 22.1949 11.0683C22.2324 11.0149 22.2691 10.9591 22.3041 10.9006H12.9003V21.1527Z" fill="#171719"/>
<path d="M22.3349 9.10065C22.3048 9.0458 22.2731 8.99307 22.2407 8.94234C22.0777 8.68754 21.8467 8.41043 21.6067 8.12243L18.2914 4.14411L18.2313 4.07161C18.2119 4.04806 18.1921 4.02412 18.1719 3.99991L13.9213 9.10065H22.3349Z" fill="#171719"/>
<path d="M16.5725 3.10751C16.4284 3.09924 16.2884 3.09983 16.1577 3.10038L16.0635 3.10065H7.93705L7.8429 3.10038C7.7122 3.09983 7.57213 3.09924 7.428 3.10751L12.0003 8.59422L16.5725 3.10751Z" fill="#171719"/>
</svg>
