<svg width="24" height="24" viewBox="0 0 24 24" fill="none" xmlns="http://www.w3.org/2000/svg">
<path fill-rule="evenodd" clip-rule="evenodd" d="M5.1501 16.1487L5.27763 16.1062C7.47394 15.3741 9.86671 15.5066 11.9687 16.4768L12.3451 16.6505C14.1477 17.4824 16.1433 17.8063 18.1165 17.587L18.5151 17.5428C19.7306 17.4077 20.6501 16.3804 20.6501 15.1574V4.5C20.6501 4.244 20.5411 4.00012 20.3503 3.82939C20.1596 3.65866 19.9051 3.57724 19.6507 3.60551L17.9178 3.79806C16.2704 3.9811 14.6043 3.71073 13.0994 3.01614L12.0873 2.54901C9.97788 1.57544 7.57671 1.44245 5.37269 2.17712C4.16482 2.57975 3.3501 3.71011 3.3501 4.98332V15.479C3.34977 15.4929 3.34977 15.5068 3.3501 15.5208V21C3.3501 21.4971 3.75304 21.9 4.2501 21.9C4.74715 21.9 5.1501 21.4971 5.1501 21V16.1487Z" fill="#171719"/>
</svg>
