<svg width="24" height="24" viewBox="0 0 24 24" fill="none" xmlns="http://www.w3.org/2000/svg">
<path d="M11.6386 2.27647C11.8754 2.21318 12.1247 2.21318 12.3615 2.27647C12.6423 2.3515 12.8751 2.5333 12.9977 2.62905L13.0327 2.65625L19.8659 7.88153C20.2527 8.17677 20.5789 8.42572 20.8216 8.75002C21.0349 9.03498 21.194 9.35676 21.2907 9.69929C21.4009 10.0891 21.4005 10.4994 21.4001 10.9861L21.4 17.335C21.4 17.8648 21.4 18.316 21.3698 18.6865C21.338 19.0756 21.2684 19.4542 21.0839 19.8161C20.8059 20.3618 20.3623 20.8055 19.8166 21.0835C19.4547 21.2679 19.0761 21.3375 18.6869 21.3693C18.3165 21.3996 17.8653 21.3996 17.3355 21.3996H12.9003V13.9996C12.9003 13.5026 12.4974 13.0996 12.0003 13.0996C11.5033 13.0996 11.1003 13.5026 11.1003 13.9996V21.3996H6.66467C6.13482 21.3996 5.68361 21.3996 5.31319 21.3693C4.92403 21.3375 4.54544 21.2679 4.18351 21.0835C3.63784 20.8055 3.1942 20.3618 2.91617 19.8161C2.73176 19.4542 2.66212 19.0756 2.63033 18.6865C2.60006 18.316 2.60007 17.8648 2.60009 17.335L2.60003 10.9861C2.59958 10.4995 2.59921 10.0891 2.70936 9.69929C2.80615 9.35676 2.96517 9.03498 3.17846 8.75002C3.42122 8.42572 3.7474 8.17676 4.13421 7.88153L10.9674 2.65625L11.0024 2.62905C11.1251 2.5333 11.3578 2.3515 11.6386 2.27647Z" fill="#171719"/>
</svg>
