<svg width="24" height="24" viewBox="0 0 24 24" fill="none" xmlns="http://www.w3.org/2000/svg">
<path fill-rule="evenodd" clip-rule="evenodd" d="M9.41444 2.09961H14.5852C15.1151 2.0996 15.5663 2.09958 15.9367 2.12985C16.3259 2.16164 16.7045 2.23128 17.0664 2.41569C17.6121 2.69373 18.0557 3.13737 18.3337 3.68304C18.5182 4.04497 18.5878 4.42357 18.6196 4.81273C18.6498 5.18316 18.6498 5.63434 18.6498 6.16421V17.835C18.6498 18.3649 18.6498 18.8161 18.6196 19.1865C18.5878 19.5757 18.5182 19.9543 18.3337 20.3162C18.0557 20.8619 17.6121 21.3055 17.0664 21.5835C16.7045 21.7679 16.3259 21.8376 15.9367 21.8694C15.5663 21.8996 15.1151 21.8996 14.5853 21.8996H9.41444C8.88459 21.8996 8.43338 21.8996 8.06296 21.8694C7.6738 21.8376 7.29521 21.7679 6.93328 21.5835C6.38761 21.3055 5.94397 20.8619 5.66594 20.3162C5.48152 19.9543 5.41189 19.5757 5.38009 19.1865C5.34983 18.8161 5.34984 18.3649 5.34985 17.8351V6.16421C5.34984 5.63436 5.34983 5.18315 5.38009 4.81273C5.41189 4.42357 5.48152 4.04497 5.66594 3.68304C5.94397 3.13737 6.38761 2.69373 6.93328 2.41569C7.29521 2.23128 7.6738 2.16164 8.06296 2.12985C8.43338 2.09958 8.8846 2.0996 9.41444 2.09961ZM9.99988 17.8255C9.62709 17.8255 9.32488 18.1277 9.32488 18.5005C9.32488 18.8733 9.62709 19.1755 9.99988 19.1755H13.9999C14.3727 19.1755 14.6749 18.8733 14.6749 18.5005C14.6749 18.1277 14.3727 17.8255 13.9999 17.8255H9.99988Z" fill="#171719"/>
</svg>
