<svg width="24" height="24" viewBox="0 0 24 24" fill="none" xmlns="http://www.w3.org/2000/svg">
<path d="M8.18177 15.822C11.4907 19.131 14.8244 20.3537 17.0084 20.7962C18.8212 21.1634 20.4912 20.3417 21.6552 19.1777L21.9272 18.9057C23.1944 17.6385 23.0204 15.5368 21.5622 14.4952L19.5676 13.0705C18.613 12.3886 17.3052 12.4969 16.4756 13.3264L15.6465 14.1555C15.0405 13.9037 13.8216 13.2594 12.283 11.7208C10.7444 10.1822 10.1001 8.96327 9.84826 8.35727L10.6774 7.52816C11.5069 6.69858 11.6152 5.39082 10.9333 4.43614L9.50857 2.44155C8.46698 0.983321 6.3653 0.809381 5.09815 2.07653L4.82615 2.34854C3.66208 3.5126 2.84042 5.18255 3.20766 6.99541C3.65008 9.1794 4.87285 12.5131 8.18177 15.822Z" fill="#171719"/>
</svg>
