<svg width="24" height="24" viewBox="0 0 24 24" fill="none" xmlns="http://www.w3.org/2000/svg">
<path d="M16.3504 1.20319C16.8563 1.16526 17.3079 1.57321 17.3182 2.08308C17.3201 2.18029 17.3062 2.27952 17.2752 2.37605L15.158 8.95026L20.4451 8.95612C22.0786 9.0836 22.8103 11.1417 21.5496 12.2676L9.78107 22.7725C9.59154 22.9413 9.34583 23.0179 9.10529 22.9971C8.76922 22.9682 8.44671 22.7184 8.3338 22.4014C8.26931 22.22 8.263 22.0174 8.32501 21.8243L10.4432 15.251H5.31622C3.57261 15.2506 2.75068 13.0955 4.0506 11.9337L15.8192 1.42878C15.9707 1.29364 16.1583 1.21757 16.3504 1.20319Z" fill="#171719"/>
<path d="M5.6004 6.20026C6.0974 6.20033 6.50079 6.60364 6.50079 7.10066C6.50058 7.59749 6.09727 8.00098 5.6004 8.00105H3.1004C2.60348 8.00105 2.20023 7.59753 2.20001 7.10066C2.20001 6.6036 2.60335 6.20026 3.1004 6.20026H5.6004Z" fill="#171719"/>
<path d="M7.6004 2.94929C8.09729 2.94935 8.50061 3.35282 8.50079 3.84968C8.50079 4.34669 8.0974 4.75 7.6004 4.75007H3.1004C2.60335 4.75007 2.20001 4.34673 2.20001 3.84968C2.20019 3.35278 2.60346 2.94929 3.1004 2.94929H7.6004Z" fill="#171719"/>
</svg>
