<svg width="24" height="24" viewBox="0 0 24 24" fill="none" xmlns="http://www.w3.org/2000/svg">
<path fill-rule="evenodd" clip-rule="evenodd" d="M10.8551 2.55005C8.92209 2.55005 7.35509 4.11705 7.35509 6.05005V6.15476H6.14987C4.41018 6.15476 2.99988 7.56465 2.99988 9.30385V18.3012C2.99988 20.0404 4.41018 21.4503 6.14987 21.4503H17.8498C19.5895 21.4503 20.9998 20.0404 20.9998 18.3012V9.30385C20.9998 7.56465 19.5895 6.15476 17.8498 6.15476H16.5551V6.05005C16.5551 4.11705 14.9881 2.55005 13.0551 2.55005H10.8551ZM14.5551 6.15476V6.05005C14.5551 5.22162 13.8835 4.55005 13.0551 4.55005H10.8551C10.0266 4.55005 9.35508 5.22162 9.35508 6.05005V6.15476H14.5551Z" fill="#171719"/>
</svg>
